<svg width="220" height="50" viewBox="0 0 220 50" fill="none" xmlns="http://www.w3.org/2000/svg">
<g clip-path="url(#clip0_12_3478)">
<path d="M68.7027 7.72845C68.2997 6.23456 67.5135 4.87265 66.4226 3.77836C65.3316 2.68406 63.9739 1.89556 62.4847 1.49138C57.0324 0 35.0908 0 35.0908 0C35.0908 0 13.1484 0.0452586 7.69694 1.53664C6.20778 1.94088 4.85016 2.72941 3.75929 3.82371C2.66841 4.918 1.88235 6.27987 1.47937 7.77371C-0.169774 17.4914 -0.809579 32.2978 1.52448 41.6263C1.92747 43.1201 2.71353 44.482 3.80441 45.5763C4.89528 46.6706 6.2529 47.4591 7.74206 47.8634C13.1939 49.3547 35.1359 49.3547 35.1359 49.3547C35.1359 49.3547 57.0779 49.3547 62.5298 47.8634C64.019 47.4591 65.3766 46.6706 66.4675 45.5763C67.5583 44.482 68.3444 43.1201 68.7474 41.6263C70.4863 31.8953 71.0226 17.0978 68.7023 7.72888L68.7027 7.72845Z" fill="#FF0000"/>
<path d="M28.1069 35.2535L46.3094 24.6776L28.1069 14.1013V35.2535Z" fill="white"/>
<path d="M211.078 14.3276C213.466 14.3276 215.268 14.7793 216.53 15.6379C217.791 16.497 218.693 17.8526 219.233 19.706C219.774 21.5591 219.999 24.0897 219.999 27.344V32.6323H208.42V34.2591L208.6 38.7336C208.735 39.728 208.961 40.4513 209.321 40.903C209.682 41.3552 210.267 41.581 211.033 41.581C212.07 41.581 212.791 41.1746 213.151 40.3612C213.556 39.5474 213.736 38.1914 213.781 36.3384L219.774 36.7C219.819 36.9711 219.819 37.3328 219.819 37.7845C219.819 40.6319 219.053 42.7565 217.476 44.1573C215.899 45.5582 213.736 46.2815 210.898 46.2815C207.474 46.2815 205.086 45.197 203.734 43.0729C202.383 40.9483 201.662 37.6035 201.662 33.1293V27.6604C201.815 19.9772 203.162 14.35 211.078 14.3276V14.3276ZM127.77 14.9151V37.5586C127.77 38.9147 127.905 39.9091 128.221 40.4966C128.861 41.753 130.519 41.4319 131.42 40.8129C131.94 40.4602 132.359 39.9773 132.636 39.4121V14.9147H139.53V45.7841H134.123L133.537 41.9875H133.402C131.916 44.8349 129.707 46.281 126.779 46.281C122.272 46.2698 121.169 43.0121 120.906 39.7035L120.889 39.4703C120.857 38.9691 120.837 38.4672 120.832 37.9651V14.9151H127.77H127.77ZM163.319 14.9151V37.5586C163.319 38.9147 163.454 39.9091 163.77 40.4966C164.41 41.753 166.068 41.4319 166.969 40.8129C167.489 40.4602 167.908 39.9773 168.185 39.4121V14.9147H175.079V45.7841H169.672L169.086 41.9875H168.951C167.465 44.8349 165.256 46.281 162.328 46.281C157.821 46.2698 156.718 43.0121 156.455 39.7035L156.438 39.4703C156.405 38.9691 156.386 38.4672 156.381 37.9651V14.9151H163.319ZM107.765 14.3276C110.018 14.3276 111.866 14.7793 113.217 15.7285C114.569 16.6776 115.605 18.1241 116.236 20.1125C116.867 22.1013 117.182 24.7677 117.182 28.0673V32.5414C117.182 35.841 116.867 38.4625 116.236 40.4509C115.605 42.4401 114.614 43.8862 113.217 44.8354C111.821 45.7392 109.928 46.2362 107.585 46.2362C105.152 46.2815 103.26 45.7845 101.863 44.8806C100.467 43.9315 99.4751 42.4849 98.8898 40.4966C98.3037 38.5078 98.0335 35.8862 98.0335 32.5871V28.1121C98.0335 24.8125 98.3488 22.1009 99.0247 20.1121C99.7006 18.0785 100.737 16.6319 102.179 15.7285C103.62 14.8241 105.467 14.3272 107.765 14.3272V14.3276ZM185.892 1.94354V18.2142H185.937C186.568 17.0392 187.379 16.0901 188.505 15.3668C189.557 14.6572 190.797 14.2795 192.065 14.2823C193.732 14.2823 194.993 14.7341 195.939 15.5927C196.886 16.497 197.562 17.8979 197.967 19.8414C198.36 21.7241 198.583 24.328 198.597 27.6116L198.598 27.9319V32.8129C198.598 37.3776 198.012 40.7677 196.93 42.9371C195.805 45.1065 194.092 46.1914 191.749 46.1914C190.443 46.1914 189.271 45.875 188.19 45.2875C187.234 44.7285 186.441 43.927 185.891 42.9634L185.802 42.8013H185.667L184.946 45.7392H179.224V1.94397H185.892V1.94354ZM158.318 3.52544V9.12932H151.469V45.7841H144.711V9.12975H137.818V3.52587H158.318L158.318 3.52544ZM84.0209 3.52544L84.0252 3.54268C84.091 3.83622 85.0019 7.89872 86.0039 12.6319L86.083 13.0069L86.2024 13.5737L86.2824 13.9543L86.3223 14.1453L86.4022 14.528L86.4422 14.7198L86.5217 15.1039L86.6377 15.6655C87.3145 18.9431 87.9603 22.2302 88.3466 24.5871H88.5271C88.897 22.4729 89.4346 19.7673 90.0078 17.0048L90.1581 16.2832C90.2338 15.922 90.3094 15.5608 90.3859 15.2004L90.5036 14.6414C91.282 10.9805 92.0837 7.32472 92.9086 3.67415L92.9215 3.61596L92.9421 3.52544H99.8356L91.8606 32.0448V45.7392H85.0573V32.0897H85.0122L77.1274 3.52501H84.0209V3.52544ZM107.63 19.1181C106.684 19.1181 106.053 19.6155 105.648 20.6552C105.242 21.6944 105.062 23.2763 105.062 25.4914V35.1181C105.062 37.378 105.242 39.05 105.603 40.0448C105.963 41.0388 106.639 41.5362 107.63 41.5362C108.576 41.5362 109.252 41.0388 109.658 40.0448C110.063 39.05 110.243 37.378 110.243 35.1181V25.491C110.243 23.2763 110.063 21.6491 109.658 20.6548C109.252 19.6155 108.576 19.1181 107.63 19.1181V19.1181ZM187.109 20.0224C186.559 20.531 186.169 21.1582 185.936 21.9423L185.892 22.1013V39.6375C186.451 40.5866 187.244 41.2194 188.64 41.2647C189.361 41.2647 189.947 40.9935 190.398 40.4513C190.848 39.9091 191.164 39.0048 191.344 37.7392C191.517 36.5246 191.607 34.8513 191.614 32.7203V28.4289C191.614 25.9884 191.524 24.1354 191.389 22.8246C191.208 21.5138 190.983 20.5647 190.578 20.0224C189.794 18.8923 188.1 18.906 187.109 20.0224ZM210.943 18.9828C210.177 19.028 209.636 19.2539 209.321 19.6608C208.961 20.1125 208.735 20.7905 208.6 21.7849C208.467 22.7591 208.422 26.1642 208.42 26.3004V28.5194H213.466V26.5625V26.6C213.463 27.2841 213.449 26.203 213.418 24.8759L213.414 24.6974C213.385 23.531 213.344 22.2306 213.286 21.7849C213.151 20.7453 212.925 20.022 212.565 19.6155C212.204 19.2086 211.664 18.9828 210.943 18.9828H210.943Z" fill="#282828"/>
</g>
<defs>
<clipPath id="clip0_12_3478">
<rect width="220" height="50" fill="white"/>
</clipPath>
</defs>
</svg>
